<svg id="wave" style="transform:rotate(0deg); transition: 0.3s" viewBox="0 0 1440 490" version="1.1" xmlns="http://www.w3.org/2000/svg"><defs><linearGradient id="sw-gradient-0" x1="0" x2="0" y1="1" y2="0"><stop stop-color="rgba(255, 248.261, 153.414, 1)" offset="0%"></stop><stop stop-color="rgba(255, 248.452, 156.293, 1)" offset="100%"></stop></linearGradient></defs><path style="transform:translate(0, 0px); opacity:1" fill="url(#sw-gradient-0)" d="M0,441L48,408.3C96,376,192,310,288,245C384,180,480,114,576,98C672,82,768,114,864,155.2C960,196,1056,245,1152,236.8C1248,229,1344,163,1440,187.8C1536,212,1632,327,1728,367.5C1824,408,1920,376,2016,302.2C2112,229,2208,114,2304,122.5C2400,131,2496,261,2592,334.8C2688,408,2784,425,2880,408.3C2976,392,3072,343,3168,285.8C3264,229,3360,163,3456,187.8C3552,212,3648,327,3744,310.3C3840,294,3936,147,4032,106.2C4128,65,4224,131,4320,163.3C4416,196,4512,196,4608,228.7C4704,261,4800,327,4896,334.8C4992,343,5088,294,5184,285.8C5280,278,5376,310,5472,302.2C5568,294,5664,245,5760,236.8C5856,229,5952,261,6048,277.7C6144,294,6240,294,6336,277.7C6432,261,6528,229,6624,204.2C6720,180,6816,163,6864,155.2L6912,147L6912,490L6864,490C6816,490,6720,490,6624,490C6528,490,6432,490,6336,490C6240,490,6144,490,6048,490C5952,490,5856,490,5760,490C5664,490,5568,490,5472,490C5376,490,5280,490,5184,490C5088,490,4992,490,4896,490C4800,490,4704,490,4608,490C4512,490,4416,490,4320,490C4224,490,4128,490,4032,490C3936,490,3840,490,3744,490C3648,490,3552,490,3456,490C3360,490,3264,490,3168,490C3072,490,2976,490,2880,490C2784,490,2688,490,2592,490C2496,490,2400,490,2304,490C2208,490,2112,490,2016,490C1920,490,1824,490,1728,490C1632,490,1536,490,1440,490C1344,490,1248,490,1152,490C1056,490,960,490,864,490C768,490,672,490,576,490C480,490,384,490,288,490C192,490,96,490,48,490L0,490Z"></path><defs><linearGradient id="sw-gradient-1" x1="0" x2="0" y1="1" y2="0"><stop stop-color="rgba(218.199, 255, 221.341, 1)" offset="0%"></stop><stop stop-color="rgba(126.06, 255, 132.703, 1)" offset="100%"></stop></linearGradient></defs><path style="transform:translate(0, 50px); opacity:0.9" fill="url(#sw-gradient-1)" d="M0,0L48,24.5C96,49,192,98,288,106.2C384,114,480,82,576,106.2C672,131,768,212,864,212.3C960,212,1056,131,1152,89.8C1248,49,1344,49,1440,98C1536,147,1632,245,1728,277.7C1824,310,1920,278,2016,253.2C2112,229,2208,212,2304,220.5C2400,229,2496,261,2592,236.8C2688,212,2784,131,2880,155.2C2976,180,3072,310,3168,302.2C3264,294,3360,147,3456,89.8C3552,33,3648,65,3744,98C3840,131,3936,163,4032,196C4128,229,4224,261,4320,269.5C4416,278,4512,261,4608,245C4704,229,4800,212,4896,228.7C4992,245,5088,294,5184,261.3C5280,229,5376,114,5472,130.7C5568,147,5664,294,5760,310.3C5856,327,5952,212,6048,212.3C6144,212,6240,327,6336,318.5C6432,310,6528,180,6624,122.5C6720,65,6816,82,6864,89.8L6912,98L6912,490L6864,490C6816,490,6720,490,6624,490C6528,490,6432,490,6336,490C6240,490,6144,490,6048,490C5952,490,5856,490,5760,490C5664,490,5568,490,5472,490C5376,490,5280,490,5184,490C5088,490,4992,490,4896,490C4800,490,4704,490,4608,490C4512,490,4416,490,4320,490C4224,490,4128,490,4032,490C3936,490,3840,490,3744,490C3648,490,3552,490,3456,490C3360,490,3264,490,3168,490C3072,490,2976,490,2880,490C2784,490,2688,490,2592,490C2496,490,2400,490,2304,490C2208,490,2112,490,2016,490C1920,490,1824,490,1728,490C1632,490,1536,490,1440,490C1344,490,1248,490,1152,490C1056,490,960,490,864,490C768,490,672,490,576,490C480,490,384,490,288,490C192,490,96,490,48,490L0,490Z"></path><defs><linearGradient id="sw-gradient-2" x1="0" x2="0" y1="1" y2="0"><stop stop-color="rgba(255, 147.655, 147.655, 1)" offset="0%"></stop><stop stop-color="rgba(255, 146.216, 146.216, 1)" offset="100%"></stop></linearGradient></defs><path style="transform:translate(0, 100px); opacity:0.8" fill="url(#sw-gradient-2)" d="M0,49L48,89.8C96,131,192,212,288,245C384,278,480,261,576,285.8C672,310,768,376,864,359.3C960,343,1056,245,1152,179.7C1248,114,1344,82,1440,98C1536,114,1632,180,1728,196C1824,212,1920,180,2016,212.3C2112,245,2208,343,2304,326.7C2400,310,2496,180,2592,147C2688,114,2784,180,2880,171.5C2976,163,3072,82,3168,81.7C3264,82,3360,163,3456,204.2C3552,245,3648,245,3744,228.7C3840,212,3936,180,4032,212.3C4128,245,4224,343,4320,343C4416,343,4512,245,4608,171.5C4704,98,4800,49,4896,57.2C4992,65,5088,131,5184,147C5280,163,5376,131,5472,155.2C5568,180,5664,261,5760,245C5856,229,5952,114,6048,122.5C6144,131,6240,261,6336,318.5C6432,376,6528,359,6624,318.5C6720,278,6816,212,6864,179.7L6912,147L6912,490L6864,490C6816,490,6720,490,6624,490C6528,490,6432,490,6336,490C6240,490,6144,490,6048,490C5952,490,5856,490,5760,490C5664,490,5568,490,5472,490C5376,490,5280,490,5184,490C5088,490,4992,490,4896,490C4800,490,4704,490,4608,490C4512,490,4416,490,4320,490C4224,490,4128,490,4032,490C3936,490,3840,490,3744,490C3648,490,3552,490,3456,490C3360,490,3264,490,3168,490C3072,490,2976,490,2880,490C2784,490,2688,490,2592,490C2496,490,2400,490,2304,490C2208,490,2112,490,2016,490C1920,490,1824,490,1728,490C1632,490,1536,490,1440,490C1344,490,1248,490,1152,490C1056,490,960,490,864,490C768,490,672,490,576,490C480,490,384,490,288,490C192,490,96,490,48,490L0,490Z"></path></svg>