<svg id="wave" style="transform:rotate(0deg); transition: 0.3s" viewBox="0 0 1440 490" version="1.1" xmlns="http://www.w3.org/2000/svg"><defs><linearGradient id="sw-gradient-0" x1="0" x2="0" y1="1" y2="0"><stop stop-color="rgba(199.425, 232.552, 197.678, 1)" offset="0%"></stop><stop stop-color="rgba(53.149, 209.784, 0, 1)" offset="100%"></stop></linearGradient></defs><path style="transform:translate(0, 0px); opacity:1" fill="url(#sw-gradient-0)" d="M0,49L80,40.8C160,33,320,16,480,49C640,82,800,163,960,196C1120,229,1280,212,1440,204.2C1600,196,1760,196,1920,212.3C2080,229,2240,261,2400,261.3C2560,261,2720,229,2880,236.8C3040,245,3200,294,3360,285.8C3520,278,3680,212,3840,204.2C4000,196,4160,245,4320,245C4480,245,4640,196,4800,220.5C4960,245,5120,343,5280,334.8C5440,327,5600,212,5760,163.3C5920,114,6080,131,6240,163.3C6400,196,6560,245,6720,261.3C6880,278,7040,261,7200,261.3C7360,261,7520,278,7680,277.7C7840,278,8000,261,8160,236.8C8320,212,8480,180,8640,196C8800,212,8960,278,9120,302.2C9280,327,9440,310,9600,269.5C9760,229,9920,163,10080,163.3C10240,163,10400,229,10560,245C10720,261,10880,229,11040,179.7C11200,131,11360,65,11440,32.7L11520,0L11520,490L11440,490C11360,490,11200,490,11040,490C10880,490,10720,490,10560,490C10400,490,10240,490,10080,490C9920,490,9760,490,9600,490C9440,490,9280,490,9120,490C8960,490,8800,490,8640,490C8480,490,8320,490,8160,490C8000,490,7840,490,7680,490C7520,490,7360,490,7200,490C7040,490,6880,490,6720,490C6560,490,6400,490,6240,490C6080,490,5920,490,5760,490C5600,490,5440,490,5280,490C5120,490,4960,490,4800,490C4640,490,4480,490,4320,490C4160,490,4000,490,3840,490C3680,490,3520,490,3360,490C3200,490,3040,490,2880,490C2720,490,2560,490,2400,490C2240,490,2080,490,1920,490C1760,490,1600,490,1440,490C1280,490,1120,490,960,490C800,490,640,490,480,490C320,490,160,490,80,490L0,490Z"></path></svg>