<svg id="wave" style="transform:rotate(0deg); transition: 0.3s" viewBox="0 0 1440 490" version="1.1" xmlns="http://www.w3.org/2000/svg"><defs><linearGradient id="sw-gradient-0" x1="0" x2="0" y1="1" y2="0"><stop stop-color="rgba(158.817, 0, 255, 1)" offset="0%"></stop><stop stop-color="rgba(210.652, 0, 255, 1)" offset="100%"></stop></linearGradient></defs><path style="transform:translate(0, 0px); opacity:1" fill="url(#sw-gradient-0)" d="M0,49L80,106.2C160,163,320,278,480,318.5C640,359,800,327,960,334.8C1120,343,1280,392,1440,359.3C1600,327,1760,212,1920,171.5C2080,131,2240,163,2400,171.5C2560,180,2720,163,2880,155.2C3040,147,3200,147,3360,147C3520,147,3680,147,3840,122.5C4000,98,4160,49,4320,65.3C4480,82,4640,163,4800,179.7C4960,196,5120,147,5280,106.2C5440,65,5600,33,5760,40.8C5920,49,6080,98,6240,138.8C6400,180,6560,212,6720,228.7C6880,245,7040,245,7200,261.3C7360,278,7520,310,7680,294C7840,278,8000,212,8160,163.3C8320,114,8480,82,8640,65.3C8800,49,8960,49,9120,40.8C9280,33,9440,16,9600,8.2C9760,0,9920,0,10080,73.5C10240,147,10400,294,10560,343C10720,392,10880,343,11040,334.8C11200,327,11360,359,11440,375.7L11520,392L11520,490L11440,490C11360,490,11200,490,11040,490C10880,490,10720,490,10560,490C10400,490,10240,490,10080,490C9920,490,9760,490,9600,490C9440,490,9280,490,9120,490C8960,490,8800,490,8640,490C8480,490,8320,490,8160,490C8000,490,7840,490,7680,490C7520,490,7360,490,7200,490C7040,490,6880,490,6720,490C6560,490,6400,490,6240,490C6080,490,5920,490,5760,490C5600,490,5440,490,5280,490C5120,490,4960,490,4800,490C4640,490,4480,490,4320,490C4160,490,4000,490,3840,490C3680,490,3520,490,3360,490C3200,490,3040,490,2880,490C2720,490,2560,490,2400,490C2240,490,2080,490,1920,490C1760,490,1600,490,1440,490C1280,490,1120,490,960,490C800,490,640,490,480,490C320,490,160,490,80,490L0,490Z"></path><defs><linearGradient id="sw-gradient-1" x1="0" x2="0" y1="1" y2="0"><stop stop-color="rgba(232.602, 232.602, 232.602, 1)" offset="0%"></stop><stop stop-color="rgba(11, 255, 212.841, 1)" offset="100%"></stop></linearGradient></defs><path style="transform:translate(0, 50px); opacity:0.9" fill="url(#sw-gradient-1)" d="M0,245L80,245C160,245,320,245,480,212.3C640,180,800,114,960,106.2C1120,98,1280,147,1440,196C1600,245,1760,294,1920,326.7C2080,359,2240,376,2400,351.2C2560,327,2720,261,2880,204.2C3040,147,3200,98,3360,106.2C3520,114,3680,180,3840,171.5C4000,163,4160,82,4320,89.8C4480,98,4640,196,4800,245C4960,294,5120,294,5280,277.7C5440,261,5600,229,5760,245C5920,261,6080,327,6240,310.3C6400,294,6560,196,6720,138.8C6880,82,7040,65,7200,49C7360,33,7520,16,7680,57.2C7840,98,8000,196,8160,196C8320,196,8480,98,8640,57.2C8800,16,8960,33,9120,65.3C9280,98,9440,147,9600,196C9760,245,9920,294,10080,318.5C10240,343,10400,343,10560,285.8C10720,229,10880,114,11040,89.8C11200,65,11360,131,11440,163.3L11520,196L11520,490L11440,490C11360,490,11200,490,11040,490C10880,490,10720,490,10560,490C10400,490,10240,490,10080,490C9920,490,9760,490,9600,490C9440,490,9280,490,9120,490C8960,490,8800,490,8640,490C8480,490,8320,490,8160,490C8000,490,7840,490,7680,490C7520,490,7360,490,7200,490C7040,490,6880,490,6720,490C6560,490,6400,490,6240,490C6080,490,5920,490,5760,490C5600,490,5440,490,5280,490C5120,490,4960,490,4800,490C4640,490,4480,490,4320,490C4160,490,4000,490,3840,490C3680,490,3520,490,3360,490C3200,490,3040,490,2880,490C2720,490,2560,490,2400,490C2240,490,2080,490,1920,490C1760,490,1600,490,1440,490C1280,490,1120,490,960,490C800,490,640,490,480,490C320,490,160,490,80,490L0,490Z"></path><defs><linearGradient id="sw-gradient-2" x1="0" x2="0" y1="1" y2="0"><stop stop-color="rgba(255, 255, 255, 1)" offset="0%"></stop><stop stop-color="rgba(113.245, 116.207, 255, 1)" offset="100%"></stop></linearGradient></defs><path style="transform:translate(0, 100px); opacity:0.8" fill="url(#sw-gradient-2)" d="M0,343L80,343C160,343,320,343,480,302.2C640,261,800,180,960,130.7C1120,82,1280,65,1440,65.3C1600,65,1760,82,1920,122.5C2080,163,2240,229,2400,245C2560,261,2720,229,2880,179.7C3040,131,3200,65,3360,106.2C3520,147,3680,294,3840,334.8C4000,376,4160,310,4320,236.8C4480,163,4640,82,4800,65.3C4960,49,5120,98,5280,122.5C5440,147,5600,147,5760,163.3C5920,180,6080,212,6240,220.5C6400,229,6560,212,6720,171.5C6880,131,7040,65,7200,81.7C7360,98,7520,196,7680,261.3C7840,327,8000,359,8160,383.8C8320,408,8480,425,8640,375.7C8800,327,8960,212,9120,155.2C9280,98,9440,98,9600,114.3C9760,131,9920,163,10080,171.5C10240,180,10400,163,10560,179.7C10720,196,10880,245,11040,294C11200,343,11360,392,11440,416.5L11520,441L11520,490L11440,490C11360,490,11200,490,11040,490C10880,490,10720,490,10560,490C10400,490,10240,490,10080,490C9920,490,9760,490,9600,490C9440,490,9280,490,9120,490C8960,490,8800,490,8640,490C8480,490,8320,490,8160,490C8000,490,7840,490,7680,490C7520,490,7360,490,7200,490C7040,490,6880,490,6720,490C6560,490,6400,490,6240,490C6080,490,5920,490,5760,490C5600,490,5440,490,5280,490C5120,490,4960,490,4800,490C4640,490,4480,490,4320,490C4160,490,4000,490,3840,490C3680,490,3520,490,3360,490C3200,490,3040,490,2880,490C2720,490,2560,490,2400,490C2240,490,2080,490,1920,490C1760,490,1600,490,1440,490C1280,490,1120,490,960,490C800,490,640,490,480,490C320,490,160,490,80,490L0,490Z"></path><defs><linearGradient id="sw-gradient-3" x1="0" x2="0" y1="1" y2="0"><stop stop-color="rgba(255, 255, 255, 1)" offset="0%"></stop><stop stop-color="rgba(98.342, 0, 255, 1)" offset="100%"></stop></linearGradient></defs><path style="transform:translate(0, 150px); opacity:0.7" fill="url(#sw-gradient-3)" d="M0,392L80,359.3C160,327,320,261,480,245C640,229,800,261,960,236.8C1120,212,1280,131,1440,147C1600,163,1760,278,1920,334.8C2080,392,2240,392,2400,334.8C2560,278,2720,163,2880,122.5C3040,82,3200,114,3360,147C3520,180,3680,212,3840,187.8C4000,163,4160,82,4320,81.7C4480,82,4640,163,4800,179.7C4960,196,5120,147,5280,147C5440,147,5600,196,5760,253.2C5920,310,6080,376,6240,334.8C6400,294,6560,147,6720,89.8C6880,33,7040,65,7200,106.2C7360,147,7520,196,7680,212.3C7840,229,8000,212,8160,245C8320,278,8480,359,8640,359.3C8800,359,8960,278,9120,228.7C9280,180,9440,163,9600,204.2C9760,245,9920,343,10080,375.7C10240,408,10400,376,10560,302.2C10720,229,10880,114,11040,57.2C11200,0,11360,0,11440,0L11520,0L11520,490L11440,490C11360,490,11200,490,11040,490C10880,490,10720,490,10560,490C10400,490,10240,490,10080,490C9920,490,9760,490,9600,490C9440,490,9280,490,9120,490C8960,490,8800,490,8640,490C8480,490,8320,490,8160,490C8000,490,7840,490,7680,490C7520,490,7360,490,7200,490C7040,490,6880,490,6720,490C6560,490,6400,490,6240,490C6080,490,5920,490,5760,490C5600,490,5440,490,5280,490C5120,490,4960,490,4800,490C4640,490,4480,490,4320,490C4160,490,4000,490,3840,490C3680,490,3520,490,3360,490C3200,490,3040,490,2880,490C2720,490,2560,490,2400,490C2240,490,2080,490,1920,490C1760,490,1600,490,1440,490C1280,490,1120,490,960,490C800,490,640,490,480,490C320,490,160,490,80,490L0,490Z"></path></svg>